<mxfile host="app.diagrams.net" agent="Mozilla/5.0 (Macintosh; Intel Mac OS X 10_15_7) AppleWebKit/537.36 (KHTML, like Gecko) Chrome/130.0.0.0 Safari/537.36" version="24.8.4">
  <diagram name="Seite-1" id="p8VCC9FZWKNZ37idPYZn">
    <mxGraphModel dx="662" dy="418" grid="1" gridSize="10" guides="1" tooltips="1" connect="1" arrows="1" fold="1" page="1" pageScale="1" pageWidth="827" pageHeight="1169" math="0" shadow="0">
      <root>
        <mxCell id="0" />
        <mxCell id="1" parent="0" />
        <mxCell id="WAFQGVnsethL2BhoRtgt-1" value="Mitfahrangebot" style="whiteSpace=wrap;html=1;align=center;" vertex="1" parent="1">
          <mxGeometry x="160" y="270" width="100" height="40" as="geometry" />
        </mxCell>
        <mxCell id="WAFQGVnsethL2BhoRtgt-2" value="Nutzer" style="whiteSpace=wrap;html=1;align=center;" vertex="1" parent="1">
          <mxGeometry x="590" y="270" width="100" height="40" as="geometry" />
        </mxCell>
        <mxCell id="WAFQGVnsethL2BhoRtgt-3" value="Fahrer" style="whiteSpace=wrap;html=1;align=center;" vertex="1" parent="1">
          <mxGeometry x="590" y="480" width="100" height="40" as="geometry" />
        </mxCell>
        <mxCell id="WAFQGVnsethL2BhoRtgt-6" value="fährt" style="shape=rhombus;perimeter=rhombusPerimeter;whiteSpace=wrap;html=1;align=center;" vertex="1" parent="1">
          <mxGeometry x="370" y="420" width="120" height="60" as="geometry" />
        </mxCell>
        <mxCell id="WAFQGVnsethL2BhoRtgt-7" value="Nach" style="ellipse;whiteSpace=wrap;html=1;align=center;" vertex="1" parent="1">
          <mxGeometry x="160" y="360" width="75" height="30" as="geometry" />
        </mxCell>
        <mxCell id="WAFQGVnsethL2BhoRtgt-36" style="edgeStyle=orthogonalEdgeStyle;rounded=0;orthogonalLoop=1;jettySize=auto;html=1;exitX=1;exitY=0;exitDx=0;exitDy=0;entryX=0.25;entryY=1;entryDx=0;entryDy=0;" edge="1" parent="1" source="WAFQGVnsethL2BhoRtgt-8" target="WAFQGVnsethL2BhoRtgt-1">
          <mxGeometry relative="1" as="geometry" />
        </mxCell>
        <mxCell id="WAFQGVnsethL2BhoRtgt-8" value="Von" style="ellipse;whiteSpace=wrap;html=1;align=center;" vertex="1" parent="1">
          <mxGeometry x="70" y="340" width="75" height="30" as="geometry" />
        </mxCell>
        <mxCell id="WAFQGVnsethL2BhoRtgt-37" style="edgeStyle=orthogonalEdgeStyle;rounded=0;orthogonalLoop=1;jettySize=auto;html=1;exitX=1;exitY=0.5;exitDx=0;exitDy=0;entryX=0;entryY=0.75;entryDx=0;entryDy=0;" edge="1" parent="1" source="WAFQGVnsethL2BhoRtgt-9" target="WAFQGVnsethL2BhoRtgt-1">
          <mxGeometry relative="1" as="geometry" />
        </mxCell>
        <mxCell id="WAFQGVnsethL2BhoRtgt-9" value="Anzahl Plätze" style="ellipse;whiteSpace=wrap;html=1;align=center;" vertex="1" parent="1">
          <mxGeometry x="30" y="280" width="100" height="40" as="geometry" />
        </mxCell>
        <mxCell id="WAFQGVnsethL2BhoRtgt-40" style="edgeStyle=orthogonalEdgeStyle;rounded=0;orthogonalLoop=1;jettySize=auto;html=1;exitX=0.5;exitY=1;exitDx=0;exitDy=0;entryX=0.75;entryY=0;entryDx=0;entryDy=0;" edge="1" parent="1" source="WAFQGVnsethL2BhoRtgt-10" target="WAFQGVnsethL2BhoRtgt-1">
          <mxGeometry relative="1" as="geometry" />
        </mxCell>
        <mxCell id="WAFQGVnsethL2BhoRtgt-10" value="Preis" style="ellipse;whiteSpace=wrap;html=1;align=center;" vertex="1" parent="1">
          <mxGeometry x="255" y="215" width="75" height="30" as="geometry" />
        </mxCell>
        <mxCell id="WAFQGVnsethL2BhoRtgt-39" style="edgeStyle=orthogonalEdgeStyle;rounded=0;orthogonalLoop=1;jettySize=auto;html=1;exitX=0.5;exitY=1;exitDx=0;exitDy=0;entryX=0.5;entryY=0;entryDx=0;entryDy=0;" edge="1" parent="1" source="WAFQGVnsethL2BhoRtgt-11" target="WAFQGVnsethL2BhoRtgt-1">
          <mxGeometry relative="1" as="geometry" />
        </mxCell>
        <mxCell id="WAFQGVnsethL2BhoRtgt-11" value="Datum" style="ellipse;whiteSpace=wrap;html=1;align=center;" vertex="1" parent="1">
          <mxGeometry x="180" y="180" width="75" height="30" as="geometry" />
        </mxCell>
        <mxCell id="WAFQGVnsethL2BhoRtgt-12" value="AngebotID" style="ellipse;whiteSpace=wrap;html=1;align=center;fontStyle=4;" vertex="1" parent="1">
          <mxGeometry x="80" y="210" width="100" height="40" as="geometry" />
        </mxCell>
        <mxCell id="WAFQGVnsethL2BhoRtgt-13" value="Kontakt" style="ellipse;whiteSpace=wrap;html=1;align=center;" vertex="1" parent="1">
          <mxGeometry x="690" y="230" width="75" height="30" as="geometry" />
        </mxCell>
        <mxCell id="WAFQGVnsethL2BhoRtgt-14" value="Name" style="ellipse;whiteSpace=wrap;html=1;align=center;fontStyle=4;" vertex="1" parent="1">
          <mxGeometry x="590" y="210" width="75" height="30" as="geometry" />
        </mxCell>
        <mxCell id="WAFQGVnsethL2BhoRtgt-15" value="Attribute" style="ellipse;whiteSpace=wrap;html=1;align=center;" vertex="1" parent="1">
          <mxGeometry x="540" y="545" width="100" height="40" as="geometry" />
        </mxCell>
        <mxCell id="WAFQGVnsethL2BhoRtgt-16" value="Erste Aufgabe" style="text;html=1;align=center;verticalAlign=middle;resizable=0;points=[];autosize=1;strokeColor=none;fillColor=none;" vertex="1" parent="1">
          <mxGeometry x="350" y="88" width="100" height="30" as="geometry" />
        </mxCell>
        <mxCell id="WAFQGVnsethL2BhoRtgt-18" value="Zweite Aufgabe" style="text;html=1;align=center;verticalAlign=middle;resizable=0;points=[];autosize=1;strokeColor=none;fillColor=none;" vertex="1" parent="1">
          <mxGeometry x="330" y="620" width="110" height="30" as="geometry" />
        </mxCell>
        <mxCell id="WAFQGVnsethL2BhoRtgt-34" style="edgeStyle=orthogonalEdgeStyle;rounded=0;orthogonalLoop=1;jettySize=auto;html=1;exitX=0.5;exitY=0;exitDx=0;exitDy=0;entryX=1;entryY=1;entryDx=0;entryDy=0;" edge="1" parent="1" source="WAFQGVnsethL2BhoRtgt-20" target="WAFQGVnsethL2BhoRtgt-3">
          <mxGeometry relative="1" as="geometry" />
        </mxCell>
        <mxCell id="WAFQGVnsethL2BhoRtgt-20" value="Attribute" style="ellipse;whiteSpace=wrap;html=1;align=center;" vertex="1" parent="1">
          <mxGeometry x="677.5" y="540" width="100" height="40" as="geometry" />
        </mxCell>
        <mxCell id="WAFQGVnsethL2BhoRtgt-21" value="Restaurant" style="whiteSpace=wrap;html=1;align=center;" vertex="1" parent="1">
          <mxGeometry x="155" y="770" width="100" height="40" as="geometry" />
        </mxCell>
        <mxCell id="WAFQGVnsethL2BhoRtgt-23" value="Spezialitäten" style="whiteSpace=wrap;html=1;align=center;" vertex="1" parent="1">
          <mxGeometry x="590" y="770" width="100" height="40" as="geometry" />
        </mxCell>
        <mxCell id="WAFQGVnsethL2BhoRtgt-75" style="edgeStyle=orthogonalEdgeStyle;rounded=0;orthogonalLoop=1;jettySize=auto;html=1;exitX=1;exitY=0.5;exitDx=0;exitDy=0;entryX=0;entryY=0.5;entryDx=0;entryDy=0;" edge="1" parent="1" source="WAFQGVnsethL2BhoRtgt-24" target="WAFQGVnsethL2BhoRtgt-21">
          <mxGeometry relative="1" as="geometry" />
        </mxCell>
        <mxCell id="WAFQGVnsethL2BhoRtgt-24" value="Name" style="ellipse;whiteSpace=wrap;html=1;align=center;fontStyle=4;" vertex="1" parent="1">
          <mxGeometry x="30" y="770" width="100" height="40" as="geometry" />
        </mxCell>
        <mxCell id="WAFQGVnsethL2BhoRtgt-76" style="edgeStyle=orthogonalEdgeStyle;rounded=0;orthogonalLoop=1;jettySize=auto;html=1;exitX=1;exitY=1;exitDx=0;exitDy=0;entryX=0.25;entryY=0;entryDx=0;entryDy=0;" edge="1" parent="1" source="WAFQGVnsethL2BhoRtgt-25" target="WAFQGVnsethL2BhoRtgt-21">
          <mxGeometry relative="1" as="geometry" />
        </mxCell>
        <mxCell id="WAFQGVnsethL2BhoRtgt-25" value="Öffnungszeiten" style="ellipse;whiteSpace=wrap;html=1;align=center;" vertex="1" parent="1">
          <mxGeometry x="90" y="710" width="100" height="40" as="geometry" />
        </mxCell>
        <mxCell id="WAFQGVnsethL2BhoRtgt-77" style="edgeStyle=orthogonalEdgeStyle;rounded=0;orthogonalLoop=1;jettySize=auto;html=1;exitX=0;exitY=1;exitDx=0;exitDy=0;entryX=0.5;entryY=0;entryDx=0;entryDy=0;" edge="1" parent="1" source="WAFQGVnsethL2BhoRtgt-26" target="WAFQGVnsethL2BhoRtgt-21">
          <mxGeometry relative="1" as="geometry" />
        </mxCell>
        <mxCell id="WAFQGVnsethL2BhoRtgt-26" value="Tel. Nummer" style="ellipse;whiteSpace=wrap;html=1;align=center;" vertex="1" parent="1">
          <mxGeometry x="210" y="710" width="100" height="40" as="geometry" />
        </mxCell>
        <mxCell id="WAFQGVnsethL2BhoRtgt-29" value="" style="endArrow=none;html=1;rounded=0;exitX=1;exitY=0.5;exitDx=0;exitDy=0;entryX=0;entryY=0.5;entryDx=0;entryDy=0;" edge="1" parent="1" source="WAFQGVnsethL2BhoRtgt-1" target="WAFQGVnsethL2BhoRtgt-2">
          <mxGeometry relative="1" as="geometry">
            <mxPoint x="290" y="340" as="sourcePoint" />
            <mxPoint x="490" y="440" as="targetPoint" />
          </mxGeometry>
        </mxCell>
        <mxCell id="WAFQGVnsethL2BhoRtgt-30" value="M" style="resizable=0;html=1;whiteSpace=wrap;align=left;verticalAlign=bottom;" connectable="0" vertex="1" parent="WAFQGVnsethL2BhoRtgt-29">
          <mxGeometry x="-1" relative="1" as="geometry" />
        </mxCell>
        <mxCell id="WAFQGVnsethL2BhoRtgt-31" value="N" style="resizable=0;html=1;whiteSpace=wrap;align=right;verticalAlign=bottom;" connectable="0" vertex="1" parent="WAFQGVnsethL2BhoRtgt-29">
          <mxGeometry x="1" relative="1" as="geometry" />
        </mxCell>
        <mxCell id="WAFQGVnsethL2BhoRtgt-5" value="reserviert" style="shape=rhombus;perimeter=rhombusPerimeter;whiteSpace=wrap;html=1;align=center;" vertex="1" parent="1">
          <mxGeometry x="370" y="260" width="120" height="60" as="geometry" />
        </mxCell>
        <mxCell id="WAFQGVnsethL2BhoRtgt-32" value="" style="endArrow=none;html=1;rounded=0;exitX=0.5;exitY=1;exitDx=0;exitDy=0;entryX=0.5;entryY=0;entryDx=0;entryDy=0;" edge="1" parent="1" source="WAFQGVnsethL2BhoRtgt-2" target="WAFQGVnsethL2BhoRtgt-3">
          <mxGeometry relative="1" as="geometry">
            <mxPoint x="650" y="340" as="sourcePoint" />
            <mxPoint x="490" y="440" as="targetPoint" />
          </mxGeometry>
        </mxCell>
        <mxCell id="WAFQGVnsethL2BhoRtgt-4" value="IST" style="shape=rhombus;perimeter=rhombusPerimeter;whiteSpace=wrap;html=1;align=center;" vertex="1" parent="1">
          <mxGeometry x="590" y="370" width="100" height="50" as="geometry" />
        </mxCell>
        <mxCell id="WAFQGVnsethL2BhoRtgt-33" style="edgeStyle=orthogonalEdgeStyle;rounded=0;orthogonalLoop=1;jettySize=auto;html=1;exitX=0.5;exitY=0;exitDx=0;exitDy=0;entryX=0.12;entryY=1.075;entryDx=0;entryDy=0;entryPerimeter=0;" edge="1" parent="1" source="WAFQGVnsethL2BhoRtgt-15" target="WAFQGVnsethL2BhoRtgt-3">
          <mxGeometry relative="1" as="geometry" />
        </mxCell>
        <mxCell id="WAFQGVnsethL2BhoRtgt-35" style="edgeStyle=orthogonalEdgeStyle;rounded=0;orthogonalLoop=1;jettySize=auto;html=1;exitX=0.5;exitY=0;exitDx=0;exitDy=0;entryX=0.42;entryY=0.975;entryDx=0;entryDy=0;entryPerimeter=0;" edge="1" parent="1" source="WAFQGVnsethL2BhoRtgt-7" target="WAFQGVnsethL2BhoRtgt-1">
          <mxGeometry relative="1" as="geometry" />
        </mxCell>
        <mxCell id="WAFQGVnsethL2BhoRtgt-38" style="edgeStyle=orthogonalEdgeStyle;rounded=0;orthogonalLoop=1;jettySize=auto;html=1;exitX=1;exitY=1;exitDx=0;exitDy=0;entryX=0.12;entryY=0.025;entryDx=0;entryDy=0;entryPerimeter=0;" edge="1" parent="1" source="WAFQGVnsethL2BhoRtgt-12" target="WAFQGVnsethL2BhoRtgt-1">
          <mxGeometry relative="1" as="geometry" />
        </mxCell>
        <mxCell id="WAFQGVnsethL2BhoRtgt-41" value="" style="endArrow=none;html=1;rounded=0;entryX=0;entryY=0.5;entryDx=0;entryDy=0;exitX=1;exitY=0.5;exitDx=0;exitDy=0;" edge="1" parent="1" source="WAFQGVnsethL2BhoRtgt-6" target="WAFQGVnsethL2BhoRtgt-3">
          <mxGeometry relative="1" as="geometry">
            <mxPoint x="330" y="440" as="sourcePoint" />
            <mxPoint x="490" y="440" as="targetPoint" />
          </mxGeometry>
        </mxCell>
        <mxCell id="WAFQGVnsethL2BhoRtgt-42" value="" style="endArrow=none;html=1;rounded=0;exitX=0.75;exitY=1;exitDx=0;exitDy=0;entryX=0;entryY=0.5;entryDx=0;entryDy=0;" edge="1" parent="1" source="WAFQGVnsethL2BhoRtgt-1" target="WAFQGVnsethL2BhoRtgt-6">
          <mxGeometry relative="1" as="geometry">
            <mxPoint x="330" y="440" as="sourcePoint" />
            <mxPoint x="490" y="440" as="targetPoint" />
          </mxGeometry>
        </mxCell>
        <mxCell id="WAFQGVnsethL2BhoRtgt-43" value="N" style="text;html=1;align=center;verticalAlign=middle;resizable=0;points=[];autosize=1;strokeColor=none;fillColor=none;" vertex="1" parent="1">
          <mxGeometry x="220" y="310" width="30" height="30" as="geometry" />
        </mxCell>
        <mxCell id="WAFQGVnsethL2BhoRtgt-44" value="[0,*]" style="text;html=1;align=center;verticalAlign=middle;resizable=0;points=[];autosize=1;strokeColor=none;fillColor=none;" vertex="1" parent="1">
          <mxGeometry x="260" y="285" width="40" height="30" as="geometry" />
        </mxCell>
        <mxCell id="WAFQGVnsethL2BhoRtgt-45" value="[1,1]" style="text;html=1;align=center;verticalAlign=middle;resizable=0;points=[];autosize=1;strokeColor=none;fillColor=none;" vertex="1" parent="1">
          <mxGeometry x="250" y="310" width="50" height="30" as="geometry" />
        </mxCell>
        <mxCell id="WAFQGVnsethL2BhoRtgt-46" value="[0,*]" style="text;html=1;align=center;verticalAlign=middle;resizable=0;points=[];autosize=1;strokeColor=none;fillColor=none;" vertex="1" parent="1">
          <mxGeometry x="550" y="290" width="40" height="30" as="geometry" />
        </mxCell>
        <mxCell id="WAFQGVnsethL2BhoRtgt-72" style="edgeStyle=orthogonalEdgeStyle;rounded=0;orthogonalLoop=1;jettySize=auto;html=1;exitX=0.5;exitY=1;exitDx=0;exitDy=0;entryX=0.5;entryY=0;entryDx=0;entryDy=0;" edge="1" parent="1" source="WAFQGVnsethL2BhoRtgt-47" target="WAFQGVnsethL2BhoRtgt-22">
          <mxGeometry relative="1" as="geometry" />
        </mxCell>
        <mxCell id="WAFQGVnsethL2BhoRtgt-47" value="Beilagen" style="ellipse;whiteSpace=wrap;html=1;align=center;" vertex="1" parent="1">
          <mxGeometry x="360" y="710" width="100" height="40" as="geometry" />
        </mxCell>
        <mxCell id="WAFQGVnsethL2BhoRtgt-71" style="edgeStyle=orthogonalEdgeStyle;rounded=0;orthogonalLoop=1;jettySize=auto;html=1;exitX=0.5;exitY=0;exitDx=0;exitDy=0;entryX=0.5;entryY=1;entryDx=0;entryDy=0;" edge="1" parent="1" source="WAFQGVnsethL2BhoRtgt-48" target="WAFQGVnsethL2BhoRtgt-22">
          <mxGeometry relative="1" as="geometry" />
        </mxCell>
        <mxCell id="WAFQGVnsethL2BhoRtgt-48" value="Preis" style="ellipse;whiteSpace=wrap;html=1;align=center;" vertex="1" parent="1">
          <mxGeometry x="360" y="830" width="100" height="40" as="geometry" />
        </mxCell>
        <mxCell id="WAFQGVnsethL2BhoRtgt-73" style="edgeStyle=orthogonalEdgeStyle;rounded=0;orthogonalLoop=1;jettySize=auto;html=1;exitX=0.5;exitY=1;exitDx=0;exitDy=0;entryX=0.25;entryY=0;entryDx=0;entryDy=0;" edge="1" parent="1" source="WAFQGVnsethL2BhoRtgt-49" target="WAFQGVnsethL2BhoRtgt-23">
          <mxGeometry relative="1" as="geometry" />
        </mxCell>
        <mxCell id="WAFQGVnsethL2BhoRtgt-49" value="Bezeichnung" style="ellipse;whiteSpace=wrap;html=1;align=center;fontStyle=4;" vertex="1" parent="1">
          <mxGeometry x="540" y="710" width="100" height="40" as="geometry" />
        </mxCell>
        <mxCell id="WAFQGVnsethL2BhoRtgt-74" style="edgeStyle=orthogonalEdgeStyle;rounded=0;orthogonalLoop=1;jettySize=auto;html=1;entryX=1;entryY=0.5;entryDx=0;entryDy=0;" edge="1" parent="1" source="WAFQGVnsethL2BhoRtgt-50" target="WAFQGVnsethL2BhoRtgt-23">
          <mxGeometry relative="1" as="geometry" />
        </mxCell>
        <mxCell id="WAFQGVnsethL2BhoRtgt-50" value="Beschreibung" style="ellipse;whiteSpace=wrap;html=1;align=center;" vertex="1" parent="1">
          <mxGeometry x="665" y="710" width="100" height="40" as="geometry" />
        </mxCell>
        <mxCell id="WAFQGVnsethL2BhoRtgt-52" value="Parkplätze" style="whiteSpace=wrap;html=1;align=center;" vertex="1" parent="1">
          <mxGeometry x="147.5" y="930" width="100" height="40" as="geometry" />
        </mxCell>
        <mxCell id="WAFQGVnsethL2BhoRtgt-53" value="" style="endArrow=none;html=1;rounded=0;exitX=1;exitY=0.5;exitDx=0;exitDy=0;entryX=0;entryY=0.5;entryDx=0;entryDy=0;" edge="1" parent="1" source="WAFQGVnsethL2BhoRtgt-21" target="WAFQGVnsethL2BhoRtgt-23">
          <mxGeometry relative="1" as="geometry">
            <mxPoint x="330" y="800" as="sourcePoint" />
            <mxPoint x="490" y="800" as="targetPoint" />
          </mxGeometry>
        </mxCell>
        <mxCell id="WAFQGVnsethL2BhoRtgt-54" value="M" style="resizable=0;html=1;whiteSpace=wrap;align=left;verticalAlign=bottom;" connectable="0" vertex="1" parent="WAFQGVnsethL2BhoRtgt-53">
          <mxGeometry x="-1" relative="1" as="geometry" />
        </mxCell>
        <mxCell id="WAFQGVnsethL2BhoRtgt-55" value="N" style="resizable=0;html=1;whiteSpace=wrap;align=right;verticalAlign=bottom;" connectable="0" vertex="1" parent="WAFQGVnsethL2BhoRtgt-53">
          <mxGeometry x="1" relative="1" as="geometry" />
        </mxCell>
        <mxCell id="WAFQGVnsethL2BhoRtgt-22" value="bietet an" style="shape=rhombus;perimeter=rhombusPerimeter;whiteSpace=wrap;html=1;align=center;" vertex="1" parent="1">
          <mxGeometry x="350" y="760" width="120" height="60" as="geometry" />
        </mxCell>
        <mxCell id="WAFQGVnsethL2BhoRtgt-57" value="N" style="text;html=1;align=center;verticalAlign=middle;resizable=0;points=[];autosize=1;strokeColor=none;fillColor=none;" vertex="1" parent="1">
          <mxGeometry x="150" y="810" width="30" height="30" as="geometry" />
        </mxCell>
        <mxCell id="WAFQGVnsethL2BhoRtgt-58" value="1" style="text;html=1;align=center;verticalAlign=middle;resizable=0;points=[];autosize=1;strokeColor=none;fillColor=none;" vertex="1" parent="1">
          <mxGeometry x="150" y="900" width="30" height="30" as="geometry" />
        </mxCell>
        <mxCell id="WAFQGVnsethL2BhoRtgt-59" value="[0,*]" style="text;html=1;align=center;verticalAlign=middle;resizable=0;points=[];autosize=1;strokeColor=none;fillColor=none;" vertex="1" parent="1">
          <mxGeometry x="255" y="790" width="40" height="30" as="geometry" />
        </mxCell>
        <mxCell id="WAFQGVnsethL2BhoRtgt-61" value="[1,*]" style="text;html=1;align=center;verticalAlign=middle;resizable=0;points=[];autosize=1;strokeColor=none;fillColor=none;" vertex="1" parent="1">
          <mxGeometry x="550" y="790" width="40" height="30" as="geometry" />
        </mxCell>
        <mxCell id="WAFQGVnsethL2BhoRtgt-62" value="[1,1]" style="text;html=1;align=center;verticalAlign=middle;resizable=0;points=[];autosize=1;strokeColor=none;fillColor=none;" vertex="1" parent="1">
          <mxGeometry x="210" y="810" width="50" height="30" as="geometry" />
        </mxCell>
        <mxCell id="WAFQGVnsethL2BhoRtgt-63" value="[0,*]" style="text;html=1;align=center;verticalAlign=middle;resizable=0;points=[];autosize=1;strokeColor=none;fillColor=none;" vertex="1" parent="1">
          <mxGeometry x="220" y="900" width="40" height="30" as="geometry" />
        </mxCell>
        <mxCell id="WAFQGVnsethL2BhoRtgt-66" style="edgeStyle=orthogonalEdgeStyle;rounded=0;orthogonalLoop=1;jettySize=auto;html=1;exitX=0.5;exitY=1;exitDx=0;exitDy=0;entryX=0.581;entryY=-0.024;entryDx=0;entryDy=0;entryPerimeter=0;" edge="1" parent="1" source="WAFQGVnsethL2BhoRtgt-21" target="WAFQGVnsethL2BhoRtgt-52">
          <mxGeometry relative="1" as="geometry" />
        </mxCell>
        <mxCell id="WAFQGVnsethL2BhoRtgt-51" value="zugeordnet" style="shape=rhombus;perimeter=rhombusPerimeter;whiteSpace=wrap;html=1;align=center;" vertex="1" parent="1">
          <mxGeometry x="145" y="840" width="120" height="60" as="geometry" />
        </mxCell>
        <mxCell id="WAFQGVnsethL2BhoRtgt-70" style="edgeStyle=orthogonalEdgeStyle;rounded=0;orthogonalLoop=1;jettySize=auto;html=1;exitX=1;exitY=0;exitDx=0;exitDy=0;entryX=0.5;entryY=1;entryDx=0;entryDy=0;" edge="1" parent="1" source="WAFQGVnsethL2BhoRtgt-67" target="WAFQGVnsethL2BhoRtgt-52">
          <mxGeometry relative="1" as="geometry" />
        </mxCell>
        <mxCell id="WAFQGVnsethL2BhoRtgt-67" value="Nummer" style="ellipse;whiteSpace=wrap;html=1;align=center;" vertex="1" parent="1">
          <mxGeometry x="90" y="990" width="100" height="40" as="geometry" />
        </mxCell>
        <mxCell id="WAFQGVnsethL2BhoRtgt-69" style="edgeStyle=orthogonalEdgeStyle;rounded=0;orthogonalLoop=1;jettySize=auto;html=1;exitX=0.5;exitY=0;exitDx=0;exitDy=0;entryX=1;entryY=0.5;entryDx=0;entryDy=0;" edge="1" parent="1" source="WAFQGVnsethL2BhoRtgt-68" target="WAFQGVnsethL2BhoRtgt-52">
          <mxGeometry relative="1" as="geometry" />
        </mxCell>
        <mxCell id="WAFQGVnsethL2BhoRtgt-68" value="Kapazität" style="ellipse;whiteSpace=wrap;html=1;align=center;" vertex="1" parent="1">
          <mxGeometry x="210" y="990" width="100" height="40" as="geometry" />
        </mxCell>
      </root>
    </mxGraphModel>
  </diagram>
</mxfile>
